<?xml version="1.0" encoding="UTF-8"?>
<svg width="32px" height="32px" viewBox="0 0 32 32" version="1.1" xmlns="http://www.w3.org/2000/svg" xmlns:xlink="http://www.w3.org/1999/xlink">
    <!-- Generator: Sketch 63.1 (92452) - https://sketch.com -->
    <title>Fill 1</title>
    <desc>Created with Sketch.</desc>
    <g id="Page-1" stroke="none" stroke-width="1" fill="none" fill-rule="evenodd">
        <g id="Desktop-HD-Copy-3" transform="translate(-24.000000, -24.000000)" fill="#FFFFFF">
            <path d="M55.7649827,55.8637559 C45.1860484,55.9638913 34.7530549,56.2058598 24.3212479,55.6269615 C24.2292933,55.6220917 24.1533566,55.3122502 24,55.0045393 C26.465867,54.5069059 28.9071139,54.8496185 31.3284868,54.8045728 C33.8978769,54.7561791 36.4687502,54.7771802 39.0387335,54.7771802 C41.5102365,54.7771802 43.9817394,54.7914852 46.4532424,54.7948332 C48.9149566,54.7981812 51.3763742,54.7954419 54.0540335,54.7954419 C54.1640824,54.1425834 54.3648994,53.4903337 54.3696455,52.8362577 C54.4352002,44.1150421 54.4699057,35.3935222 54.5221122,26.6716979 C54.5274515,25.7933064 54.5959725,24.9152194 54.6369072,24 C55.8171892,24.2179239 55.6917157,25.0366602 55.7050639,25.7004757 C55.778331,29.3476568 55.8145196,32.995751 55.8658362,36.6432364 C55.913,39.9757062 56.0123703,43.308176 55.9987254,46.6403414 C55.9859705,49.6474472 55.8513014,52.6539443 55.7649827,55.8637559" id="Fill-1"></path>
        </g>
    </g>
</svg>