<?xml version="1.0" encoding="UTF-8"?>
<svg width="48px" height="24px" viewBox="0 0 48 24" version="1.1" xmlns="http://www.w3.org/2000/svg" xmlns:xlink="http://www.w3.org/1999/xlink">
    <!-- Generator: Sketch 63.1 (92452) - https://sketch.com -->
    <title>Artboard</title>
    <desc>Created with Sketch.</desc>
    <g id="Artboard" stroke="none" stroke-width="1" fill="none" fill-rule="evenodd">
        <path d="M34.2631568,10.2477544 C34.6299969,5.81392911 30.4723861,0.72229779 25.4502649,0.859870927 C20.6239579,0.992387045 16.5077414,4.8617371 16.2857143,10.2301781 C22.2926748,10.3345699 28.2880398,10.2625061 34.2631568,10.2477544 Z M16.309642,12.3982286 C15.8984492,17.8779911 20.8621198,22.4249599 25.4082517,22.282453 C30.7944905,22.1135258 34.7659545,17.5497214 34.2387338,12.2135163 C32.4802517,11.8540305 19.2046887,11.9704856 16.309642,12.3982286 Z M14.1683364,12.2075793 L0,11.9617983 C4.71684699,10.3976772 9.61782763,11.1959278 14.4712336,10.6204126 C14.8610821,9.41702397 15.1477234,8.30179084 15.5786653,7.24448529 C17.2121489,3.23856145 20.0133224,0.627101248 24.476388,0.0673011229 C26.4396328,-0.178614287 28.2802122,0.263454898 29.9948359,1.16351967 C32.7268354,2.59770896 34.8095879,4.62548955 35.7984015,7.59100659 L35.8906632,7.88093103 C36.1036507,8.58233932 36.3579633,9.27147935 36.6451768,10.1195454 C40.368496,10.580973 44.1739662,10.1209309 48,10.48596 L47.9794192,11.6577491 C46.1050356,12.2694233 44.1980004,11.8189169 42.333033,11.9126158 C40.544296,12.0025697 38.7500889,11.9866473 36.7915312,12.0201312 L36.4464433,13.6263175 C36.4029911,13.8262881 36.3597323,14.0230746 36.3156706,14.2196662 C35.8260926,16.401861 34.9637032,18.3638088 33.5592635,20.1792178 C29.392553,25.5663952 19.7763833,25.6209623 16.1524256,17.9963134 C15.3518509,16.311777 14.9243373,14.452237 14.1683364,12.2075793 Z" id="Shape-Copy-4" fill="#FFFFFF" transform="translate(24.000000, 12.000000) rotate(-180.000000) translate(-24.000000, -12.000000) "></path>
    </g>
</svg>